<svg width="47" height="46" viewBox="0 0 47 46" fill="none" xmlns="http://www.w3.org/2000/svg">
<path d="M30.557 17.0683C33.6048 21.3354 42.7486 37.1845 42.7486 37.1845C42.7486 37.1845 18.975 43.8898 15.927 44.4994C12.8791 45.1091 8.612 47.5474 6.78331 44.4994C4.95463 41.4515 3.73527 39.0132 1.29708 34.7461C-1.1411 30.4791 0.0778269 29.2599 3.12583 27.4312C6.17383 25.6024 19.5845 18.2875 23.242 16.4587C26.8996 14.6299 27.5091 12.8012 30.557 17.0683Z" fill="#FFA6D8" fill-opacity="0.992157"/>
<path d="M46.4061 3.65755V17.6779V31.6983C46.4061 37.1846 43.9676 37.1844 41.5294 37.7941C39.0912 38.4038 8.00263 46.9377 10.4411 45.7185C12.8795 44.4994 12.2694 6.70556 12.2695 3.65755C12.2697 0.609544 12.1274 0.000160103 17.1462 6.69962e-05H41.5294C46.4061 0.000152465 46.4061 0.609544 46.4061 3.65755Z" fill="#8783D1" fill-opacity="0.8"/>
</svg>
