<svg width="80" height="80" viewBox="0 0 80 80" fill="none" xmlns="http://www.w3.org/2000/svg">
<rect width="80" height="80" rx="12" fill="#EFEFEF"/>
<path d="M44.557 34.0683C47.6048 38.3354 56.7486 54.1845 56.7486 54.1845C56.7486 54.1845 32.975 60.8898 29.927 61.4994C26.8791 62.1091 22.612 64.5474 20.7833 61.4994C18.9546 58.4515 17.7353 56.0132 15.2971 51.7461C12.8589 47.4791 14.0778 46.2599 17.1258 44.4312C20.1738 42.6024 33.5845 35.2875 37.242 33.4587C40.8996 31.6299 41.5091 29.8012 44.557 34.0683Z" fill="#FFA6D8" fill-opacity="0.992157"/>
<path d="M60.4061 20.6576V34.6779V48.6983C60.4061 54.1846 57.9676 54.1844 55.5294 54.7941C53.0912 55.4038 22.0026 63.9377 24.4411 62.7185C26.8795 61.4994 26.2694 23.7056 26.2695 20.6576C26.2697 17.6095 26.1274 17.0002 31.1462 17.0001H55.5294C60.4061 17.0002 60.4061 17.6095 60.4061 20.6576Z" fill="#8783D1" fill-opacity="0.8"/>
</svg>
