<svg width="64" height="64" viewBox="0 0 64 64" fill="none" xmlns="http://www.w3.org/2000/svg">
<path d="M2.57277 28.9221C0.0212663 31.4736 0.0212315 31.4737 4.84516 36.2977C9.6691 41.1216 25.9298 57.4247 28.9437 60.4386C31.9576 63.4525 33.2754 61.6848 35.3633 58.3443L35.3662 58.3397C37.4531 55.0006 39.6214 51.5315 42.148 47.2344C44.6758 42.9352 43.4516 42.5945 38.13 37.2629C32.8085 31.9313 25.829 24.9618 21.005 20.1378L21.0048 20.1377C16.181 15.3139 16.181 15.3138 13.2043 18.2907L2.57277 28.9221Z" fill="#4DA3FF" fill-opacity="0.65"/>
<path d="M60.6755 29.1809C63.227 31.7324 63.2271 31.7324 58.4031 36.5564C53.5792 41.3804 37.3185 57.6835 34.3046 60.6974C31.2907 63.7113 29.9729 61.9436 27.885 58.603L27.882 58.5981C25.795 55.2591 23.6269 51.7902 21.1003 47.4931C18.5725 43.194 19.7967 42.8532 25.1183 37.5216C30.4398 32.19 37.4193 25.2205 42.2433 20.3965L42.2435 20.3964C47.0673 15.5726 47.0673 15.5726 50.044 18.5494L60.6755 29.1809Z" fill="#63D4E6" fill-opacity="0.9"/>
</svg>
