<svg width="59" height="45" viewBox="0 0 59 45" fill="none" xmlns="http://www.w3.org/2000/svg">
<g clip-path="url(#clip0_95_462)">
<path d="M19.5312 19.5312C20.4059 18.6565 21.4038 17.6586 22.4666 16.5958C23.6195 15.443 24.8486 14.2138 26.0795 12.9829C27.3066 11.7558 28.5355 10.5269 29.6924 9.37007C33.0794 12.7571 37.0111 16.6888 39.8535 19.5312C45.4654 25.1431 45.4654 34.2417 39.8535 39.8536C34.2417 45.4654 25.1431 45.4654 19.5312 39.8536C13.9193 34.2417 13.9193 25.1431 19.5312 19.5312Z" fill="#4DA3FF" fill-opacity="0.65"/>
<path d="M25.4835 25.4835C26.3582 24.6088 27.3562 23.6109 28.419 22.5481C29.5718 21.3953 30.8009 20.1661 32.0318 18.9352C33.2589 17.7081 34.4878 16.4792 35.6447 15.3224C32.2576 11.9353 28.326 8.00369 25.4835 5.16121C19.8716 -0.450654 10.773 -0.450659 5.16116 5.1612C-0.450693 10.7731 -0.450688 19.8717 5.16117 25.4835C10.773 31.0954 19.8717 31.0954 25.4835 25.4835Z" fill="#D0D95C" fill-opacity="0.65"/>
<path d="M33.9013 25.4835C33.0266 24.6088 32.0286 23.6109 30.9658 22.5481C29.813 21.3952 28.5839 20.1661 27.353 18.9352C26.1258 17.7081 24.8969 16.4792 23.7401 15.3223C27.1272 11.9353 31.0588 8.00365 33.9013 5.16117C39.5131 -0.450682 48.6117 -0.450677 54.2236 5.16118C59.8355 10.773 59.8355 19.8717 54.2236 25.4835C48.6117 31.0954 39.5131 31.0954 33.9013 25.4835Z" fill="#FFB703" fill-opacity="0.65"/>
</g>
<defs>
<clipPath id="clip0_95_462">
<rect width="59" height="45" fill="white"/>
</clipPath>
</defs>
</svg>
