<svg width="80" height="80" viewBox="0 0 80 80" fill="none" xmlns="http://www.w3.org/2000/svg">
<rect width="80" height="80" rx="12" fill="#EFEFEF"/>
<path d="M29.5273 39.9012C30.402 39.0265 31.3999 38.0285 32.4627 36.9658C33.6156 35.8129 34.8447 34.5838 36.0756 33.3529C37.3027 32.1258 38.5316 30.8969 39.6885 29.74C43.0755 33.1271 47.0071 37.0587 49.8496 39.9012C55.4615 45.5131 55.4615 54.6117 49.8496 60.2235C44.2378 65.8354 35.1392 65.8354 29.5273 60.2235C23.9154 54.6117 23.9154 45.5131 29.5273 39.9012Z" fill="#4DA3FF" fill-opacity="0.65"/>
<path d="M35.4796 45.8535C36.3543 44.9788 37.3523 43.9809 38.415 42.9181C39.5679 41.7653 40.797 40.5361 42.0279 39.3052C43.255 38.0781 44.4839 36.8492 45.6408 35.6924C42.2537 32.3053 38.3221 28.3737 35.4796 25.5312C29.8677 19.9193 20.7691 19.9193 15.1573 25.5312C9.5454 31.143 9.54541 40.2416 15.1573 45.8535C20.7691 51.4654 29.8677 51.4654 35.4796 45.8535Z" fill="#D0D95C" fill-opacity="0.65"/>
<path d="M43.8974 45.8535C43.0227 44.9788 42.0247 43.9808 40.9619 42.918C39.8091 41.7652 38.58 40.5361 37.3491 39.3052C36.1219 38.078 34.893 36.8491 33.7362 35.6923C37.1232 32.3052 41.0549 28.3736 43.8974 25.5311C49.5092 19.9193 58.6078 19.9193 64.2197 25.5311C69.8315 31.143 69.8316 40.2416 64.2197 45.8535C58.6078 51.4653 49.5092 51.4653 43.8974 45.8535Z" fill="#FFB703" fill-opacity="0.65"/>
</svg>
