<svg viewBox="0 0 64 64" xmlns="http://www.w3.org/2000/svg">
  <title>Grupos Icon</title>
  <defs>
    <linearGradient id="grad-gr" x1="0%" y1="0%" x2="100%" y2="100%">
      <stop offset="0%" stop-color="#F59E0B"/>
      <stop offset="100%" stop-color="#D97706"/>
    </linearGradient>
    <filter id="shadow-gr" x="-50%" y="-50%" width="200%" height="200%">
      <feGaussianBlur in="SourceAlpha" stdDeviation="1"/>
      <feOffset dx="0" dy="1" result="offsetblur"/>
      <feComponentTransfer>
        <feFuncA type="linear" slope="0.2"/>
      </feComponentTransfer>
      <feMerge>
        <feMergeNode/>
        <feMergeNode in="SourceGraphic"/>
      </feMerge>
    </filter>
  </defs>
  <rect width="64" height="64" rx="12" fill="url(#grad-gr)" filter="url(#shadow-gr)"/>
  <g fill="none" stroke="#FFFFFF" stroke-width="2.5" stroke-linecap="round" stroke-linejoin="round">
    <circle cx="24" cy="26" r="5"/>
    <path d="M18 38C18 35.8 20.8 34 24 34C27.2 34 30 35.8 30 38"/>
    <circle cx="40" cy="26" r="5"/>
    <path d="M34 38C34 35.8 36.8 34 40 34C43.2 34 46 35.8 46 38"/>
    <circle cx="32" cy="20" r="4"/>
    <path d="M26 30C26 28.9 28.7 28 32 28C35.3 28 38 28.9 38 30"/>
  </g>
</svg>