<svg width="63" height="62" viewBox="0 0 63 62" fill="none" xmlns="http://www.w3.org/2000/svg">
<g clip-path="url(#clip0_99_64)">
<rect x="9.5" y="23" width="46" height="33" rx="2" fill="#483DFF" fill-opacity="0.2"/>
<path d="M61.1758 35.3263C63.7273 32.7748 63.7273 32.7748 58.9034 27.9508C54.0794 23.1268 37.8187 6.8237 34.8048 3.80981C31.7909 0.795915 30.4731 2.56363 28.3853 5.90414L28.3824 5.90875C26.2954 9.24785 24.1272 12.7169 21.6006 17.0141C19.0728 21.3132 20.297 21.654 25.6185 26.9856C30.94 32.3172 37.9196 39.2867 42.7435 44.1106L42.7437 44.1108C47.5675 48.9346 47.5675 48.9346 50.5443 45.9578L61.1758 35.3263Z" fill="#6C63FF" fill-opacity="0.86"/>
<path d="M3.07301 35.0675C0.52151 32.516 0.521476 32.516 5.34541 27.692C10.1693 22.868 26.4301 6.56491 29.444 3.55102C32.4579 0.537126 33.7756 2.30484 35.8635 5.64535L35.8666 5.65026C37.9535 8.98927 40.1217 12.4582 42.6482 16.7553C45.176 21.0544 43.9518 21.3952 38.6303 26.7268C33.3088 32.0584 26.3292 39.0279 21.5052 43.8518L21.5051 43.852C16.6813 48.6758 16.6813 48.6758 13.7045 45.699L3.07301 35.0675Z" fill="#4DA3FF" fill-opacity="0.66"/>
</g>
<defs>
<clipPath id="clip0_99_64">
<rect width="63" height="62" fill="white"/>
</clipPath>
</defs>
</svg>
