<svg width="80" height="80" viewBox="0 0 80 80" fill="none" xmlns="http://www.w3.org/2000/svg">
<rect width="80" height="80" rx="12" fill="#EFEFEF"/>
<path d="M34.003 60.5404C36.9999 60.5404 37 60.5404 37 54.8737C37 49.2071 37.0249 30.0808 37.0249 26.5404C37.0249 23 35.2128 23.2643 32.0248 24L32.0205 24.001C28.8338 24.7364 25.5231 25.5005 21.5155 26.5404C17.5062 27.5808 18.025 28.5 18.0191 34.7571C18.0131 41.0141 18.0191 49.2071 18.0191 54.8737V54.8739C18.0191 60.5404 18.0191 60.5404 21.5155 60.5404H34.003Z" fill="#8B88D2" fill-opacity="0.8"/>
<path d="M45.3964 60.5404C48.1136 60.5404 48.1136 60.5404 48.1136 55.4031C48.1137 50.2659 48.1362 32.9264 48.1362 29.7168C48.1362 26.5071 46.4933 26.7467 43.6028 27.4137L43.5986 27.4147C40.7094 28.0814 37.7078 28.774 34.0744 29.7168C30.4392 30.66 30.9096 31.4933 30.9042 37.1658C30.8989 42.8383 30.9042 50.2659 30.9042 55.4031V55.4033C30.9042 60.5404 30.9042 60.5404 34.0744 60.5404H45.3964Z" fill="#63D4E6" fill-opacity="0.9"/>
<path d="M59.3262 60.5404C62.9345 60.5404 62.9346 60.5404 62.9346 53.7183C62.9346 46.8962 62.9646 23.8701 62.9646 19.6078C62.9646 15.3455 60.7828 15.6637 56.9444 16.5494L56.9391 16.5506C53.1023 17.436 49.1161 18.3558 44.291 19.6078C39.4636 20.8603 40.0883 21.9669 40.0812 29.4998C40.074 37.0327 40.0811 46.8962 40.0811 53.7183V53.7185C40.0812 60.5404 40.0812 60.5404 44.291 60.5404H59.3262Z" fill="#4DA3FF" fill-opacity="0.65"/>
</svg>
