<svg width="45" height="45" viewBox="0 0 45 45" fill="none" xmlns="http://www.w3.org/2000/svg">
<path d="M16.003 44.5404C18.9999 44.5404 19 44.5404 19 38.8737C19 33.2071 19.0249 14.0808 19.0249 10.5404C19.0249 7 17.2128 7.26427 14.0248 8L14.0205 8.001C10.8338 8.73643 7.52308 9.50047 3.51553 10.5404C-0.493835 11.5808 0.0249901 12.5 0.0190697 18.7571C0.0131493 25.0141 0.0190544 33.2071 0.0190639 38.8737V38.8739C0.0190735 44.5404 0.0190735 44.5404 3.51553 44.5404H16.003Z" fill="#8B88D2" fill-opacity="0.8"/>
<path d="M27.3964 44.5404C30.1136 44.5404 30.1136 44.5404 30.1136 39.4031C30.1137 34.2659 30.1362 16.9264 30.1362 13.7168C30.1362 10.5071 28.4933 10.7467 25.6028 11.4137L25.5986 11.4147C22.7094 12.0814 19.7078 12.774 16.0744 13.7168C12.4392 14.66 12.9096 15.4933 12.9042 21.1658C12.8989 26.8383 12.9042 34.2659 12.9042 39.4031V39.4033C12.9042 44.5404 12.9042 44.5404 16.0744 44.5404H27.3964Z" fill="#63D4E6" fill-opacity="0.9"/>
<path d="M41.3262 44.5404C44.9345 44.5404 44.9346 44.5404 44.9346 37.7183C44.9346 30.8962 44.9646 7.87008 44.9646 3.60779C44.9646 -0.654503 42.7828 -0.336349 38.9444 0.5494L38.9391 0.550625C35.1023 1.436 31.1161 2.35583 26.291 3.60779C21.4636 4.86033 22.0883 5.96695 22.0812 13.4998C22.074 21.0327 22.0811 30.8962 22.0811 37.7183V37.7185C22.0812 44.5404 22.0812 44.5404 26.291 44.5404H41.3262Z" fill="#4DA3FF" fill-opacity="0.65"/>
</svg>
