<svg width="50" height="46" viewBox="0 0 50 46" fill="none" xmlns="http://www.w3.org/2000/svg">
<path d="M37.529 13.4111C38.1656 11.6288 36.8442 9.75388 34.9517 9.75388H46.1912C47.8481 9.75388 49.1912 11.097 49.1912 12.7539V43C49.1912 44.6569 47.8481 46 46.1912 46H27.1846C26.5538 46 26.1133 45.375 26.3255 44.7809L37.529 13.4111Z" fill="#88BFF9" fill-opacity="0.9"/>
<path d="M0 12.7539C0 11.097 1.34315 9.75388 3 9.75388H39.4824C40.1088 9.75388 40.5423 10.3795 40.3224 10.966L27.9146 44.0534C27.4755 45.2243 26.3561 46 25.1056 46H3C1.34314 46 0 44.6569 0 43V12.7539Z" fill="#6C63FF"/>
<path d="M10.3559 28.5243C11.6506 23.9934 17.4758 13.6374 17.4758 13.6374C17.4758 13.6374 24.5953 0.692512 27.8317 0.045168C31.0681 -0.602176 40.7771 5.87026 40.1297 9.10661C39.5559 11.9747 30.3406 36.1818 27.3499 43.0148C28.8338 46.6231 25.3874 46.4428 26.5372 44.7056C26.6845 44.4831 26.9659 43.8921 27.3499 43.0148C27.1633 42.561 26.8987 42.0474 26.5372 41.4693C23.3011 36.2948 9.06123 33.0552 10.3559 28.5243Z" fill="#483DFF"/>
</svg>
