<svg width="80" height="80" viewBox="0 0 80 80" fill="none" xmlns="http://www.w3.org/2000/svg">
<rect width="80" height="80" rx="12" fill="#EFEFEF"/>
<path d="M52.529 26.4111C53.1656 24.6288 51.8442 22.7539 49.9517 22.7539H61.1912C62.8481 22.7539 64.1912 24.097 64.1912 25.7539V56C64.1912 57.6569 62.8481 59 61.1912 59H42.1846C41.5538 59 41.1133 58.375 41.3255 57.7809L52.529 26.4111Z" fill="#88BFF9" fill-opacity="0.9"/>
<path d="M15 25.7539C15 24.097 16.3431 22.7539 18 22.7539H54.4824C55.1088 22.7539 55.5423 23.3795 55.3224 23.9659L42.9146 57.0534C42.4755 58.2243 41.3561 59 40.1056 59H18C16.3431 59 15 57.6569 15 56V25.7539Z" fill="#6C63FF"/>
<path d="M25.3559 41.5243C26.6506 36.9934 32.4758 26.6374 32.4758 26.6374C32.4758 26.6374 39.5953 13.6925 42.8317 13.0452C46.0681 12.3978 55.7771 18.8703 55.1297 22.1066C54.5559 24.9747 45.3406 49.1818 42.3499 56.0148C43.8338 59.6231 40.3874 59.4428 41.5372 57.7056C41.6845 57.4831 41.9659 56.8921 42.3499 56.0148C42.1633 55.561 41.8987 55.0474 41.5372 54.4693C38.3011 49.2948 24.0612 46.0552 25.3559 41.5243Z" fill="#483DFF"/>
</svg>
