<svg width="63" height="45" viewBox="0 0 63 45" fill="none" xmlns="http://www.w3.org/2000/svg">
<path d="M0 29.9953C0 35.6126 0 35.6127 6.8221 35.6127C13.6442 35.6128 36.6703 35.6594 40.9326 35.6594C45.1949 35.6594 44.8768 32.263 43.991 26.2874L43.9898 26.2792C43.1044 20.3062 42.1846 14.1008 40.9326 6.58923C39.6801 -0.925766 38.5735 0.0466995 31.0406 0.0356026C23.5077 0.0245056 13.6442 0.0355759 6.8221 0.0355949H6.82186C0 0.035614 -4.17444e-05 0.035614 0 6.58923V29.9953Z" fill="#4DA3FF" fill-opacity="0.65"/>
<path d="M62.5405 15.0047C62.5405 9.3874 62.5405 9.38732 55.7184 9.38727C48.8963 9.38722 25.8702 9.34058 21.6079 9.34058C17.3456 9.34058 17.6638 12.737 18.5495 18.7126L18.5508 18.7213C19.4362 24.6941 20.356 30.8994 21.6079 38.4108C22.8605 45.9258 23.9671 44.9533 31.5 44.9644C39.0328 44.9755 48.8963 44.9644 55.7184 44.9644H55.7187C62.5405 44.9644 62.5406 44.9644 62.5405 38.4108V15.0047Z" fill="#8B88D2" fill-opacity="0.8"/>
</svg>
