<svg width="80" height="80" viewBox="0 0 80 80" fill="none" xmlns="http://www.w3.org/2000/svg">
<rect width="80" height="80" rx="12" fill="#EFEFEF"/>
<path d="M9 45.2679C9 48.8762 9 48.8763 15.8221 48.8763C22.6442 48.8763 45.6703 48.9063 49.9326 48.9063C54.1949 48.9063 53.8768 46.7245 52.991 42.8861L52.9898 42.8808C52.1044 39.044 51.1846 35.0578 49.9326 30.2327C48.6801 25.4053 47.5735 26.03 40.0406 26.0229C32.5077 26.0157 22.6442 26.0228 15.8221 26.0229H15.8219C9 26.0229 8.99996 26.0229 9 30.2327V45.2679Z" fill="#4DA3FF" fill-opacity="0.65"/>
<path d="M71.5405 35.6385C71.5405 32.0301 71.5405 32.03 64.7184 32.03C57.8963 32.03 34.8702 32 30.6079 32C26.3456 32 26.6638 34.1818 27.5495 38.0202L27.5508 38.0259C28.4362 41.8626 29.356 45.8486 30.6079 50.6737C31.8605 55.501 32.9671 54.8763 40.5 54.8835C48.0328 54.8906 57.8963 54.8835 64.7184 54.8835H64.7187C71.5405 54.8835 71.5406 54.8835 71.5405 50.6737V35.6385Z" fill="#8B88D2" fill-opacity="0.8"/>
</svg>
