<svg width="80" height="80" viewBox="0 0 80 80" fill="none" xmlns="http://www.w3.org/2000/svg">
<rect width="80" height="80" rx="12" fill="#EFEFEF"/>
<path d="M33.9158 12.6919C32.0632 13.6144 18.1684 21.9174 16.3158 23.3014C14.4632 24.6853 14 25.1466 14 26.5304V47.2881C14 48.672 14.9263 49.5946 16.3158 50.5171C17.7053 51.4395 32.5263 60.2039 33.9158 61.1266C35.3053 62.0492 36.2316 62.5105 38.5474 61.1266L38.5847 61.1043C41.0083 59.6559 54.7652 51.4347 56.1474 50.5171C57.5368 49.5946 58 48.672 58 47.2881V26.5304C58 25.1466 57.2285 23.9707 56.1474 23.3014C55.0662 22.632 40.4 13.6144 38.5474 12.6919C36.6947 11.7694 35.7684 11.7694 33.9158 12.6919Z" fill="#85BDF9" fill-opacity="0.65"/>
<path d="M46.3895 23.5397C44.9579 24.2592 34.2211 30.7356 32.7895 31.8151C31.3579 32.8945 31 33.2543 31 34.3337V50.5247C31 51.6042 31.7158 52.3238 32.7895 53.0433C33.8632 53.7628 45.3158 60.599 46.3895 61.3187C47.4632 62.0384 48.1789 62.3982 49.9684 61.3187L49.9961 61.302C51.8657 60.1742 62.5001 53.7592 63.5684 53.0433C64.6421 52.3238 65 51.6042 65 50.5247V34.3337C65 33.2543 64.4038 32.3372 63.5684 31.8151C62.733 31.293 51.4 24.2592 49.9684 23.5397C48.5368 22.8201 47.8211 22.8201 46.3895 23.5397Z" fill="#5ED3A3" fill-opacity="0.75"/>
</svg>
