<svg width="51" height="50" viewBox="0 0 51 50" fill="none" xmlns="http://www.w3.org/2000/svg">
<path d="M19.9158 0.691871C18.0632 1.61437 4.16842 9.91744 2.31579 11.3014C0.463158 12.6853 0 13.1466 0 14.5304V35.2881C0 36.672 0.926315 37.5946 2.31579 38.5171C3.70526 39.4395 18.5263 48.2039 19.9158 49.1266C21.3053 50.0492 22.2316 50.5105 24.5474 49.1266L24.5847 49.1043C27.0083 47.6559 40.7652 39.4347 42.1474 38.5171C43.5368 37.5946 44 36.672 44 35.2881V14.5304C44 13.1466 43.2285 11.9707 42.1474 11.3014C41.0662 10.632 26.4 1.61436 24.5474 0.691871C22.6947 -0.230617 21.7684 -0.23063 19.9158 0.691871Z" fill="#85BDF9" fill-opacity="0.65"/>
<path d="M32.3895 11.5397C30.9579 12.2592 20.2211 18.7356 18.7895 19.8151C17.3579 20.8945 17 21.2543 17 22.3337V38.5247C17 39.6042 17.7158 40.3238 18.7895 41.0433C19.8632 41.7628 31.3158 48.599 32.3895 49.3187C33.4632 50.0384 34.1789 50.3982 35.9684 49.3187L35.9961 49.302C37.8657 48.1742 48.5001 41.7592 49.5684 41.0433C50.6421 40.3238 51 39.6042 51 38.5247V22.3337C51 21.2543 50.4038 20.3372 49.5684 19.8151C48.733 19.293 37.4 12.2592 35.9684 11.5397C34.5368 10.8201 33.8211 10.8201 32.3895 11.5397Z" fill="#5ED3A3" fill-opacity="0.75"/>
</svg>
