<svg width="80" height="80" viewBox="0 0 80 80" fill="none" xmlns="http://www.w3.org/2000/svg">
<rect width="80" height="80" rx="12" fill="#EFEFEF"/>
<path d="M46.75 29.8749C46.75 34.4741 46.75 41.1249 46.75 46.7499C41.125 46.7499 34.5956 46.7499 29.875 46.7499C20.5552 46.7499 13 39.1947 13 29.8749C13 20.5551 20.5552 12.9999 29.875 12.9999C39.1948 12.9999 46.75 20.5551 46.75 29.8749Z" fill="#6C63FF" fill-opacity="0.86"/>
<path d="M33.25 50.1249C33.25 45.5257 33.25 38.8749 33.25 33.2499C38.875 33.2499 45.4044 33.2499 50.125 33.2499C59.4448 33.2499 67 40.8051 67 50.1249C67 59.4447 59.4448 66.9999 50.125 66.9999C40.8052 66.9999 33.25 59.4447 33.25 50.1249Z" fill="#88BFF9" fill-opacity="0.72"/>
</svg>
