<?xml version="1.0" encoding="UTF-8"?>
<svg version="1.1" xmlns="http://www.w3.org/2000/svg" width="250" height="250">
<path d="M0 0 C1.97577026 0.01135986 1.97577026 0.01135986 3.99145508 0.02294922 C18.5973237 0.27006302 33.24767125 2.28425517 44.49609375 12.54296875 C53.89882911 22.56680223 56.52303494 33.06887463 56.41455078 46.54711914 C56.41484283 47.51403687 56.41513489 48.48095459 56.41543579 49.47717285 C56.41405321 52.64242837 56.39854278 55.80744234 56.3828125 58.97265625 C56.37907856 61.17939628 56.37623339 63.38613797 56.37423706 65.59288025 C56.36663063 71.37800743 56.34700797 77.1630329 56.3248291 82.94812012 C56.30430607 88.86058171 56.29522157 94.77305987 56.28515625 100.68554688 C56.26375913 112.26958295 56.2286015 123.85351707 56.1875 135.4375 C49.9175 135.4375 43.6475 135.4375 37.1875 135.4375 C34.96654328 115.74501708 34.96654328 115.74501708 34.1875 106.4375 C33.775 107.13875 33.3625 107.84 32.9375 108.5625 C23.30902114 124.38071527 10.3298348 133.24222109 -7.51953125 138.1875 C-22.13918956 141.34376806 -39.94576755 140.74211257 -52.9375 132.625 C-59.91050331 127.29895366 -64.8435998 121.12057109 -66.8125 112.4375 C-68.09853999 101.50616009 -67.46153626 90.93289486 -60.89453125 81.7578125 C-50.80861297 69.7261153 -37.2365785 64.74583276 -22.1875 61.9375 C-21.11298584 61.72883301 -20.03847168 61.52016602 -18.93139648 61.30517578 C-10.30264136 59.6535167 -1.642266 58.18863812 7.04345703 56.86914062 C15.70820263 55.5074729 24.19200106 53.9980248 31.1875 48.4375 C33.47242798 43.86764404 33.02452616 37.0077162 31.46875 32.23046875 C27.99323005 25.79795401 23.24364209 23.18893012 16.56640625 21.05078125 C2.87834343 17.52200315 -12.72864608 18.26628822 -25.25 25.125 C-31.67661717 29.33626296 -36.04553995 34.8877616 -37.8125 42.4375 C-38.1425 44.7475 -38.4725 47.0575 -38.8125 49.4375 C-46.7325 49.4375 -54.6525 49.4375 -62.8125 49.4375 C-61.53785157 36.69101571 -58.64748597 26.86643461 -49.8125 17.4375 C-49.24015625 16.82390625 -48.6678125 16.2103125 -48.078125 15.578125 C-34.96843893 2.91663333 -17.53270364 -0.14141993 0 0 Z M29.7265625 66.28125 C25.13354185 68.5991849 20.56525084 69.8207128 15.5625 70.9375 C14.65951172 71.14761719 13.75652344 71.35773438 12.82617188 71.57421875 C7.0829198 72.88040289 1.32261395 73.96889109 -4.4831543 74.95605469 C-17.9353918 77.24510571 -30.47945655 79.52000964 -39.8125 90.4375 C-42.48093685 95.3474238 -42.36801862 100.95399367 -41.8125 106.4375 C-40.05686169 111.80768777 -36.50584168 115.41188944 -31.8125 118.4375 C-21.57012881 122.80164077 -7.98867125 121.44308006 2.23046875 117.75390625 C17.19640041 111.0913977 26.00361908 100.35259914 32.1875 85.4375 C34.61870593 78.56717253 34.40729736 71.65418 34.1875 64.4375 C32.68102626 64.35913757 32.68102626 64.35913757 29.7265625 66.28125 Z " fill="#343434" transform="translate(108.8125,58.5625)"/>
<path d="M0 0 C3.71873987 1.87136587 4.9206759 4.57842538 6.4375 8.375 C7.19685732 14.33356059 7.60821082 21.04895404 4.875 26.5625 C1.13379936 30.87926997 -1.90792947 32.0828877 -7.40234375 32.6875 C-13.72052651 32.94245819 -19.64161068 32.74090181 -24.5625 28.375 C-28.14652291 23.1022341 -28.2952545 16.52813025 -27.5625 10.375 C-26.32007568 5.31862197 -23.94024271 2.22053276 -19.5625 -0.625 C-13.36867986 -2.68960671 -6.00583047 -2.69034413 0 0 Z " fill="#333333" transform="translate(225.5625,164.625)"/>
</svg>
